<?xml version="1.0" standalone="no"?>
<!DOCTYPE svg PUBLIC "-//W3C//DTD SVG 20010904//EN"
 "http://www.w3.org/TR/2001/REC-SVG-20010904/DTD/svg10.dtd">
<svg version="1.0" xmlns="http://www.w3.org/2000/svg"
 width="192.000000pt" height="192.000000pt" viewBox="0 0 192.000000 192.000000"
 preserveAspectRatio="xMidYMid meet">
<metadata>
Created by potrace 1.11, written by Peter Selinger 2001-2013
</metadata>
<g transform="translate(0.000000,192.000000) scale(0.100000,-0.100000)"
fill="#000000" stroke="none">
<path d="M765 1784 c-198 -48 -382 -209 -456 -399 -26 -65 -33 -99 -37 -180
-5 -123 8 -192 55 -287 46 -92 144 -192 238 -243 170 -92 224 -140 280 -246
38 -72 57 -89 99 -89 31 0 541 234 573 262 36 33 37 63 2 151 -39 99 -43 193
-14 327 48 222 -1 406 -146 550 -72 72 -174 130 -274 155 -74 19 -239 18 -320
-1z m198 -198 c18 -7 44 -27 58 -43 16 -19 39 -33 64 -37 26 -5 52 -21 77 -46
35 -35 38 -42 38 -93 0 -47 3 -57 20 -62 53 -17 82 -109 54 -171 -11 -24 -18
-64 -18 -106 -1 -51 -6 -73 -22 -95 -29 -39 -101 -75 -143 -70 -30 3 -40 -2
-75 -39 -44 -46 -90 -61 -149 -50 -32 6 -97 58 -97 77 0 5 -12 9 -26 9 -40 0
-94 30 -115 64 -11 18 -19 50 -19 76 0 39 -4 48 -35 73 -45 36 -63 92 -47 146
7 21 19 44 27 51 11 9 12 17 4 33 -16 28 -5 104 18 136 30 40 80 64 133 65 41
1 51 6 76 35 48 57 112 74 177 47z"/>
<path d="M875 1563 c-34 -9 -75 -43 -81 -68 -6 -26 67 -195 85 -195 5 0 16 12
23 28 23 49 98 39 98 -13 0 -33 -24 -49 -65 -42 -19 3 -37 1 -41 -5 -5 -7 104
-263 121 -286 8 -10 55 25 59 44 12 47 87 43 94 -5 6 -35 -17 -54 -58 -48 -30
4 -59 -3 -78 -19 -6 -4 20 -48 32 -56 37 -25 116 5 146 55 31 50 26 93 -14
133 -31 31 -40 34 -91 34 -75 0 -71 24 5 28 42 3 60 -1 83 -18 27 -21 30 -21
46 -6 10 11 16 33 16 61 0 37 -6 50 -32 76 -37 38 -77 35 -87 -6 -12 -48 -87
-44 -94 4 -6 36 26 64 64 57 50 -10 64 1 64 48 0 109 -125 151 -205 69 -19
-19 -39 -32 -44 -28 -17 10 4 41 48 73 32 23 37 32 29 46 -10 18 -68 47 -90
45 -7 -1 -22 -4 -33 -6z"/>
<path d="M622 1436 c-32 -30 -37 -40 -37 -80 0 -38 5 -51 33 -78 29 -30 38
-33 87 -32 64 2 78 -21 21 -32 -44 -8 -88 2 -121 28 l-25 20 -16 -38 c-22 -51
-6 -107 38 -134 36 -21 56 -17 69 16 5 14 20 29 34 36 21 9 28 8 45 -7 43 -39
15 -91 -42 -82 -50 7 -68 -7 -68 -54 0 -33 6 -47 34 -75 29 -29 41 -34 81 -34
42 0 52 5 86 38 24 24 43 36 50 31 9 -5 1 -19 -27 -47 -21 -21 -46 -42 -54
-45 -12 -4 -8 -12 18 -36 26 -25 41 -31 78 -31 40 0 51 5 85 39 l39 39 -25 57
c-59 133 -78 157 -92 118 -17 -50 -58 -67 -87 -37 -21 20 -20 48 1 69 12 13
26 15 55 11 28 -5 38 -3 38 7 0 12 -116 265 -126 276 -8 9 -54 -19 -54 -34 0
-8 -11 -22 -25 -31 -37 -24 -75 -6 -75 35 0 37 22 54 62 49 18 -3 43 -1 55 5
21 9 21 11 7 38 -13 25 -20 29 -59 29 -38 0 -52 -6 -83 -34z"/>
<path d="M672 1353 c4 -21 33 -25 33 -3 0 8 -8 16 -18 18 -14 3 -18 -1 -15
-15z"/>
<path d="M930 1315 c0 -8 9 -15 20 -15 11 0 20 7 20 15 0 8 -9 15 -20 15 -11
0 -20 -7 -20 -15z"/>
<path d="M1074 1279 c-10 -17 13 -36 27 -22 12 12 4 33 -11 33 -5 0 -12 -5
-16 -11z"/>
<path d="M707 1114 c-14 -15 -6 -34 14 -34 14 0 19 5 17 17 -3 18 -20 27 -31
17z"/>
<path d="M844 1059 c-3 -6 -2 -15 4 -21 13 -13 32 -2 32 18 0 16 -26 19 -36 3z"/>
<path d="M1102 1013 c2 -10 10 -18 18 -18 8 0 16 8 18 18 2 12 -3 17 -18 17
-15 0 -20 -5 -18 -17z"/>
<path d="M1285 437 c-121 -57 -237 -112 -258 -121 -58 -28 -61 -96 -3 -96 11
0 136 54 276 120 266 124 301 148 271 184 -7 9 -25 16 -40 16 -14 0 -125 -47
-246 -103z"/>
<path d="M1330 304 c-124 -57 -231 -111 -238 -118 -20 -19 0 -31 92 -55 l80
-20 60 20 c62 21 136 59 170 88 10 9 34 50 53 90 31 69 36 101 16 101 -4 0
-109 -48 -233 -106z"/>
</g>
</svg>
